<svg width="600" height="600" viewBox="0 0 600 600"
     xmlns="http://www.w3.org/2000/svg">
  <rect width="600" height="600" fill="white"/>

  <!-- กรอบแปดเหลี่ยม -->
  <polygon
    points="300,40 430,80 520,170 560,300 520,430 430,520 300,560 170,520 80,430 40,300 80,170 170,80"
    fill="white" stroke="#444" stroke-width="2"/>

  <!-- วง -->
  <circle cx="300" cy="300" r="210" fill="white" stroke="#444" stroke-width="2"/>
  <circle cx="300" cy="300" r="160" fill="white" stroke="#444" stroke-width="2"/>
  <circle cx="300" cy="300" r="110" fill="white" stroke="#444" stroke-width="2"/>

  <!-- กลีบดอกแหลม 16 กลีบ -->
  <g stroke="#444" stroke-width="2" fill="white">
    <path d="M300 110 L315 170 L285 170 Z"/>
    <path d="M350 120 L370 180 L335 170 Z"/>
    <path d="M400 145 L430 195 L390 190 Z"/>
    <path d="M440 185 L480 225 L435 230 Z"/>
    <path d="M460 240 L520 260 L470 280 Z"/>
    <path d="M460 360 L470 320 L520 340 Z"/>
    <path d="M440 415 L435 370 L480 375 Z"/>
    <path d="M400 455 L390 410 L430 405 Z"/>
    <path d="M350 480 L335 430 L370 420 Z"/>
    <path d="M300 490 L315 430 L285 430 Z"/>
    <path d="M250 480 L265 430 L230 420 Z"/>
    <path d="M200 455 L210 410 L170 405 Z"/>
    <path d="M160 415 L165 370 L120 375 Z"/>
    <path d="M140 360 L130 320 L80 340 Z"/>
    <path d="M140 240 L80 260 L130 280 Z"/>
    <path d="M160 185 L120 225 L165 230 Z"/>
    <path d="M200 145 L170 195 L210 190 Z"/>
    <path d="M250 120 L230 180 L265 170 Z"/>
  </g>

  <!-- วงเมล็ดข้างใน -->
  <g stroke="#444" stroke-width="2" fill="white">
    <circle cx="300" cy="190" r="12"/>
    <circle cx="360" cy="210" r="12"/>
    <circle cx="390" cy="260" r="12"/>
    <circle cx="390" cy="340" r="12"/>
    <circle cx="360" cy="390" r="12"/>
    <circle cx="300" cy="410" r="12"/>
    <circle cx="240" cy="390" r="12"/>
    <circle cx="210" cy="340" r="12"/>
    <circle cx="210" cy="260" r="12"/>
    <circle cx="240" cy="210" r="12"/>
  </g>

  <circle cx="300" cy="300" r="40" fill="white" stroke="#444" stroke-width="2"/>
</svg>
