<svg width="600" height="600" viewBox="0 0 600 600"
     xmlns="http://www.w3.org/2000/svg">
  <rect width="600" height="600" fill="white"/>

  <!-- วงกรอบ -->
  <circle cx="300" cy="300" r="260" fill="white" stroke="#444" stroke-width="2"/>
  <circle cx="300" cy="300" r="230" fill="white" stroke="#444" stroke-width="2"/>

  <!-- ดาว 12 แฉก -->
  <g stroke="#444" stroke-width="2" fill="white">
    <!-- ใช้วงกลมเล็กเป็นแฉก -->
    <!-- ชั้นนอก -->
    <circle cx="300" cy="60" r="22"/>
    <circle cx="390" cy="80" r="22"/>
    <circle cx="460" cy="140" r="22"/>
    <circle cx="500" cy="220" r="22"/>
    <circle cx="500" cy="380" r="22"/>
    <circle cx="460" cy="460" r="22"/>
    <circle cx="390" cy="520" r="22"/>
    <circle cx="300" cy="540" r="22"/>
    <circle cx="210" cy="520" r="22"/>
    <circle cx="140" cy="460" r="22"/>
    <circle cx="100" cy="380" r="22"/>
    <circle cx="100" cy="220" r="22"/>

    <!-- ชั้นกลาง -->
    <circle cx="300" cy="120" r="18"/>
    <circle cx="360" cy="135" r="18"/>
    <circle cx="420" cy="180" r="18"/>
    <circle cx="450" cy="240" r="18"/>
    <circle cx="450" cy="360" r="18"/>
    <circle cx="420" cy="420" r="18"/>
    <circle cx="360" cy="465" r="18"/>
    <circle cx="300" cy="480" r="18"/>
    <circle cx="240" cy="465" r="18"/>
    <circle cx="180" cy="420" r="18"/>
    <circle cx="150" cy="360" r="18"/>
    <circle cx="150" cy="240" r="18"/>
  </g>

  <!-- ลายเป็นวง -->
  <circle cx="300" cy="300" r="170" fill="white" stroke="#444" stroke-width="2"/>
  <circle cx="300" cy="300" r="120" fill="white" stroke="#444" stroke-width="2"/>
  <circle cx="300" cy="300" r="70"  fill="white" stroke="#444" stroke-width="2"/>

  <!-- กลีบบัว 8 กลีบ -->
  <g stroke="#444" stroke-width="2" fill="white">
    <path d="M300 130 Q330 180 300 210 Q270 180 300 130 Z"/>
    <path d="M300 470 Q330 420 300 390 Q270 420 300 470 Z"/>
    <path d="M130 300 Q180 330 210 300 Q180 270 130 300 Z"/>
    <path d="M470 300 Q420 330 390 300 Q420 270 470 300 Z"/>

    <path d="M190 190 Q230 210 250 250 Q210 230 190 190 Z"/>
    <path d="M410 190 Q390 230 350 250 Q370 210 410 190 Z"/>
    <path d="M190 410 Q230 390 250 350 Q210 370 190 410 Z"/>
    <path d="M410 410 Q390 370 350 350 Q370 390 410 410 Z"/>
  </g>

  <!-- วงกลาง -->
  <circle cx="300" cy="300" r="35" fill="white" stroke="#444" stroke-width="2"/>
</svg>
