<svg width="600" height="600" viewBox="0 0 600 600"
     xmlns="http://www.w3.org/2000/svg">
  <rect width="600" height="600" fill="white"/>

  <!-- กรอบสี่เหลี่ยมโค้ง -->
  <rect x="40" y="40" width="520" height="520" rx="60" ry="60"
        fill="white" stroke="#444" stroke-width="2"/>

  <!-- วง 3 ชั้น -->
  <circle cx="300" cy="300" r="230" fill="white" stroke="#444" stroke-width="2"/>
  <circle cx="300" cy="300" r="180" fill="white" stroke="#444" stroke-width="2"/>
  <circle cx="300" cy="300" r="130" fill="white" stroke="#444" stroke-width="2"/>

  <!-- กังหัน 12 ใบ -->
  <g stroke="#444" stroke-width="2" fill="white">
    <polygon points="300,90 320,150 280,150"/>
    <polygon points="375,105 390,165 345,150"/>
    <polygon points="440,145 440,205 400,180"/>
    <polygon points="480,210 465,265 430,240"/>
    <polygon points="495,300 435,320 435,280"/>

    <polygon points="480,390 430,360 465,335"/>
    <polygon points="440,455 400,420 440,395"/>
    <polygon points="375,495 345,450 390,435"/>
    <polygon points="300,510 280,450 320,450"/>

    <polygon points="225,495 210,435 255,450"/>
    <polygon points="160,455 160,395 200,420"/>
    <polygon points="120,390 135,335 170,360"/>
    <polygon points="105,300 165,280 165,320"/>

    <polygon points="120,210 170,240 135,265"/>
    <polygon points="160,145 200,180 160,205"/>
    <polygon points="225,105 255,150 210,165"/>
  </g>

  <!-- ดาวด้านใน -->
  <polygon points="300,230 335,260 355,300 335,340 300,370 265,340 245,300 265,260"
           fill="white" stroke="#444" stroke-width="2"/>

  <!-- แหวนจุด -->
  <g fill="white" stroke="#444" stroke-width="2">
    <circle cx="300" cy="170" r="10"/>
    <circle cx="365" cy="190" r="10"/>
    <circle cx="410" cy="240" r="10"/>
    <circle cx="430" cy="305" r="10"/>
    <circle cx="410" cy="360" r="10"/>
    <circle cx="365" cy="410" r="10"/>
    <circle cx="300" cy="430" r="10"/>
    <circle cx="235" cy="410" r="10"/>
    <circle cx="190" cy="360" r="10"/>
    <circle cx="170" cy="295" r="10"/>
    <circle cx="190" cy="240" r="10"/>
    <circle cx="235" cy="190" r="10"/>
  </g>

  <circle cx="300" cy="300" r="35" fill="white" stroke="#444" stroke-width="2"/>
</svg>
