<svg width="600" height="600" viewBox="0 0 600 600"
     xmlns="http://www.w3.org/2000/svg">
  <rect width="600" height="600" fill="white"/>

  <!-- วงหลัก -->
  <circle cx="300" cy="300" r="260" fill="white" stroke="#444" stroke-width="2"/>

  <!-- แหวนสลับลาย -->
  <g stroke="#444" stroke-width="2" fill="white">
    <circle cx="300" cy="300" r="220"/>
    <circle cx="300" cy="300" r="190"/>
    <circle cx="300" cy="300" r="160"/>
    <circle cx="300" cy="300" r="130"/>
  </g>

  <!-- ช่องสามเหลี่ยม 16 ช่อง -->
  <g stroke="#444" stroke-width="2" fill="white">
    <path d="M300 110 L330 160 L270 160 Z"/>
    <path d="M360 125 L400 170 L345 180 Z"/>
    <path d="M420 160 L470 200 L415 215 Z"/>
    <path d="M460 220 L505 260 L450 270 Z"/>

    <path d="M490 300 L450 330 L505 340 Z"/>
    <path d="M460 380 L450 330 L505 340 Z"/>
  </g>

  <!-- เอาแบบง่าย: แถวสามเหลี่ยมรอบวง -->
  <g stroke="#444" stroke-width="2" fill="white">
    <!-- เหนือ -->
    <path d="M300 140 L320 180 L280 180 Z"/>
    <path d="M360 155 L390 195 L345 195 Z"/>
    <path d="M240 155 L255 195 L210 195 Z"/>

    <!-- ใต้ -->
    <path d="M300 460 L320 420 L280 420 Z"/>
    <path d="M360 445 L390 405 L345 405 Z"/>
    <path d="M240 445 L255 405 L210 405 Z"/>

    <!-- ซ้าย -->
    <path d="M140 300 L180 280 L180 320 Z"/>
    <path d="M155 240 L195 255 L195 210 Z"/>
    <path d="M155 360 L195 345 L195 390 Z"/>

    <!-- ขวา -->
    <path d="M460 300 L420 280 L420 320 Z"/>
    <path d="M445 240 L405 255 L405 210 Z"/>
    <path d="M445 360 L405 345 L405 390 Z"/>
  </g>

  <!-- ลายเกลียวด้านใน -->
  <g stroke="#444" stroke-width="2" fill="white">
    <path d="M300 220
             Q340 230 350 270
             Q360 310 330 335
             Q310 355 280 360
             Q260 340 260 315
             Q260 275 285 250
             Q290 230 300 220 Z"/>
    <path d="M300 220
             Q260 230 250 270
             Q240 310 270 335
             Q290 355 320 360
             Q340 340 340 315
             Q340 275 315 250
             Q310 230 300 220 Z"/>
  </g>

  <circle cx="300" cy="300" r="40" fill="white" stroke="#444" stroke-width="2"/>
</svg>
